<svg xmlns="http://www.w3.org/2000/svg" version="1.1" xmlns:xlink="http://www.w3.org/1999/xlink" xmlns:svgjs="http://svgjs.dev/svgjs" width="1000" height="1000" viewBox="0 0 1000 1000">
    <rect width="1000" height="1000" fill="#ffffff"></rect>
    <g transform="matrix(0.7,0,0,0.7,150,218.95000000000005)">
        <svg viewBox="0 0 448 360" data-background-color="#ffffff" preserveAspectRatio="xMidYMid meet" height="803" width="1000" xmlns="http://www.w3.org/2000/svg" xmlns:xlink="http://www.w3.org/1999/xlink">
            <g id="tight-bounds" transform="matrix(1,0,0,1,0,0)">
                <svg viewBox="0 0 448 360" height="360" width="448">
                    <g><svg></svg></g>
                    <g>
                        <svg viewBox="0 0 448 360" height="360" width="448">
                            <g>
                                <path
                                    xmlns="http://www.w3.org/2000/svg"
                                    d="M193.855 44.683c1.378 0 2.494 1.116 2.495 2.494 0 1.378-1.116 2.494-2.495 2.495h-23.846l-17.167 17.167c-0.973 0.973-2.551 0.973-3.53 0-0.973-0.973-0.973-2.551 0-3.529l13.644-13.645h-40.378c-11.518 0-19.151 2.688-23.815 8.113-4.739 5.519-6.66 14.056-6.66 25.63 0 0.069 0 0.137-0.006 0.206l0.212 36.692 14.692-14.692c0.973-0.973 2.551-0.973 3.53 0 0.973 0.973 0.973 2.551 0 3.53l-18.178 18.178c0.206 35.832 0.193 71.358-0.013 107.19 25.486 25.2 50.617 50.312 75.811 75.791h25.38c1.378 0 2.494 1.116 2.495 2.495 0 1.378-1.116 2.494-2.495 2.494h-20.448l25.942 26.241 0.006-0.006c8.188 8.188 15.577 12.859 22.824 13.413 7.146 0.543 14.442-2.956 22.586-11.093l28.555-28.555h-20.722c-1.378 0-2.494-1.116-2.495-2.494 0-1.378 1.116-2.494 2.495-2.495h25.711l16.625-16.625c0.973-0.973 2.551-0.973 3.529 0 0.973 0.973 0.973 2.551 0 3.53l-13.101 13.102h40.377c11.518 0 19.151-2.688 23.815-8.113 4.739-5.519 6.66-14.056 6.66-25.63h0.013l-0.212-36.898-16.014 16.014c-0.973 0.973-2.551 0.973-3.53 0-0.973-0.973-0.973-2.551 0-3.53l19.5-19.5c-0.206-35.832-0.193-71.358 0.013-107.19-25.486-25.2-50.617-50.312-75.811-75.791h-26.147c-1.378 0-2.494-1.116-2.495-2.495 0-1.378 1.116-2.494 2.495-2.494h21.215l-25.824-26.123c-0.044-0.037-0.081-0.075-0.124-0.112-8.188-8.188-15.577-12.859-22.824-13.413-7.146-0.543-14.442 2.956-22.586 11.093l-28.555 28.555h18.858zM122.578 44.683h45.367l32.078-32.078c9.248-9.248 17.81-13.195 26.484-12.534 8.568 0.649 16.956 5.824 25.985 14.854 0.05 0.05 0.094 0.094 0.137 0.143l29.278 29.615h43.508c13.071 0 21.919 3.268 27.594 9.871 5.6 6.517 7.864 16.101 7.864 28.867 0 0.081-0.006 0.156-0.012 0.23l-0.225 39.742 28.43 28.112 0.006-0.006c9.03 9.03 14.206 17.411 14.854 25.985 0.661 8.674-3.293 17.236-12.534 26.484l-30.768 30.768 0.237 41.843h0.012c0 12.765-2.27 22.35-7.864 28.867-5.675 6.604-14.524 9.872-27.594 9.871h-45.366l-32.078 32.078c-9.248 9.248-17.81 13.195-26.484 12.534-8.568-0.649-16.956-5.824-25.985-14.854l0.006-0.006-29.421-29.758h-43.509c-13.071 0-21.919-3.268-27.594-9.872-5.6-6.517-7.864-16.101-7.863-28.866h0.012l0.231-39.972-28.293-27.969c-0.05-0.044-0.1-0.087-0.143-0.137-9.03-9.03-14.206-17.411-14.854-25.985-0.661-8.674 3.293-17.236 12.534-26.484l30.768-30.768-0.237-41.607c-0.006-0.075-0.012-0.156-0.012-0.23 0-12.765 2.27-22.35 7.864-28.867 5.675-6.604 14.524-9.872 27.594-9.871zM87.682 179.997l-0.274-47.724-27.276 27.276c-8.138 8.138-11.636 15.44-11.094 22.587 0.549 7.246 5.226 14.642 13.413 22.823 0.037 0.037 0.081 0.081 0.113 0.125l24.837 24.551 0.281-49.644zM92.303 241.483l-0.2 35.09h0.013c0 11.58 1.921 20.117 6.66 25.63 4.664 5.432 12.297 8.113 23.815 8.113h38.576l-33.55-33.936-35.308-34.903zM325.415 49.672h-38.575l33.549 33.936 35.308 34.902 0.2-34.884c-0.006-0.069-0.006-0.137-0.007-0.205 0-11.58-1.921-20.117-6.66-25.63-4.664-5.432-12.297-8.113-23.815-8.113zM360.599 130.352l-0.281 49.645 0.274 47.724 27.276-27.276c8.138-8.138 11.636-15.44 11.094-22.587-0.549-7.252-5.226-14.642-13.413-22.824l0.006-0.006-24.956-24.669z"
                                    fill="#31c48d"
                                    fill-rule="nonzero"
                                    stroke="none"
                                    stroke-width="1"
                                    stroke-linecap="butt"
                                    stroke-linejoin="miter"
                                    stroke-miterlimit="10"
                                    stroke-dasharray=""
                                    stroke-dashoffset="0"
                                    font-family="none"
                                    font-weight="none"
                                    font-size="none"
                                    text-anchor="none"
                                    style="mix-blend-mode: normal;"
                                    data-fill-palette-color="tertiary"
                                ></path>
                            </g>
                            <g transform="matrix(1,0,0,1,158.86676016830296,90)">
                                <svg viewBox="0 0 130.2664796633941 180" height="180" width="130.2664796633941">
                                    <g>
                                        <svg viewBox="0 0 130.2664796633941 180" height="180" width="130.2664796633941">
                                            <g>
                                                <svg viewBox="0 0 130.2664796633941 180" height="180" width="130.2664796633941">
                                                    <g>
                                                        <svg viewBox="0 0 130.2664796633941 180" height="180" width="130.2664796633941">
                                                            <g id="textblocktransform">
                                                                <svg viewBox="0 0 130.2664796633941 180" height="180" width="130.2664796633941" id="textblock">
                                                                    <g>
                                                                        <svg viewBox="0 0 130.2664796633941 180" height="180" width="130.2664796633941">
                                                                            <g transform="matrix(1,0,0,1,0,0)">
                                                                                <svg width="130.2664796633941" viewBox="3.950000047683716 -35 25.799999237060547 35.650001525878906" height="180" data-palette-color="#31c48d">
                                                                                    <path
                                                                                        d="M17.1-17.75Q23.85-16 26.8-13.68 29.75-11.35 29.75-7.55L29.75-7.55Q29.75-5.2 28.33-3.33 26.9-1.45 24.43-0.4 21.95 0.65 18.9 0.65L18.9 0.65Q14.9 0.65 11.35-1.3 7.8-3.25 5.5-6.7L5.5-6.7 5.5 0 3.95 0 3.95-10.45 4.35-10.5Q7.05-5.8 10.73-3.35 14.4-0.9 18.9-0.9L18.9-0.9Q22.85-0.9 25.48-2.73 28.1-4.55 28.1-7.55L28.1-7.55Q28.1-10.6 25.55-12.63 23-14.65 17.05-16.1L17.05-16.1Q4.35-19.15 4.35-26.8L4.35-26.8Q4.35-29.25 5.63-31.1 6.9-32.95 9.15-33.98 11.4-35 14.25-35L14.25-35Q18.2-35 21.35-33.18 24.5-31.35 26.55-27.9L26.55-27.9 26.55-34.3 28.1-34.3 28.1-23.85 27.7-23.8Q25-28.85 21.83-31.15 18.65-33.45 14.25-33.45L14.25-33.45Q10.65-33.45 8.33-31.7 6-29.95 6-26.95L6-26.95Q6-23.75 8.72-21.5 11.45-19.25 17.1-17.75L17.1-17.75Z"
                                                                                        opacity="1"
                                                                                        transform="matrix(1,0,0,1,0,0)"
                                                                                        fill="#31c48d"
                                                                                        class="undefined-text-0"
                                                                                        data-fill-palette-color="primary"
                                                                                        id="text-0"
                                                                                    ></path>
                                                                                </svg>
                                                                            </g>
                                                                        </svg>
                                                                    </g>
                                                                </svg>
                                                            </g>
                                                        </svg>
                                                    </g>
                                                    <g></g>
                                                </svg>
                                            </g>
                                        </svg>
                                    </g>
                                </svg>
                            </g>
                        </svg>
                    </g>
                    <defs></defs>
                </svg>
                <rect width="448" height="360" fill="none" stroke="none" visibility="hidden"></rect>
            </g>
        </svg>
    </g>
</svg>
